<svg xmlns="http://www.w3.org/2000/svg" xmlns:xlink="http://www.w3.org/1999/xlink" viewBox="0 0 976.77 668.69"><defs><style>.cls-1{fill:none;}.cls-2{fill:url(#linear-gradient);}.cls-3{fill:url(#linear-gradient-2);}.cls-4{fill:#001f99;}.cls-5{fill:url(#linear-gradient-3);}.cls-6{fill:url(#linear-gradient-4);}.cls-7{fill:#83a8fa;}.cls-8{fill:#2848bd;}.cls-61,.cls-9{fill:#fff;}.cls-10{fill:url(#linear-gradient-5);}.cls-11{fill:url(#linear-gradient-6);}.cls-12{fill:url(#linear-gradient-7);}.cls-13{fill:url(#linear-gradient-8);}.cls-14{fill:url(#linear-gradient-9);}.cls-15{fill:#72abfe;opacity:0.22;}.cls-100,.cls-101,.cls-102,.cls-103,.cls-104,.cls-15,.cls-62,.cls-63,.cls-64,.cls-65,.cls-66,.cls-67,.cls-68,.cls-69,.cls-70,.cls-71,.cls-72,.cls-73,.cls-74,.cls-75,.cls-76,.cls-77,.cls-78,.cls-79,.cls-80,.cls-81,.cls-82,.cls-83,.cls-84,.cls-85,.cls-86,.cls-87,.cls-88,.cls-89,.cls-90,.cls-91,.cls-92,.cls-93,.cls-94,.cls-95,.cls-96,.cls-97,.cls-98,.cls-99{isolation:isolate;}.cls-16{fill:#ff6984;}.cls-17{fill:url(#linear-gradient-10);}.cls-18{fill:url(#linear-gradient-11);}.cls-19{fill:url(#linear-gradient-12);}.cls-20{fill:url(#linear-gradient-13);}.cls-21{fill:url(#linear-gradient-14);}.cls-22{fill:url(#linear-gradient-15);}.cls-23{fill:#c2dbff;}.cls-24{fill:url(#linear-gradient-16);}.cls-25{clip-path:url(#clip-path);}.cls-26{fill:url(#linear-gradient-17);}.cls-27{fill:#3486fe;}.cls-28{fill:url(#linear-gradient-18);}.cls-29{fill:url(#linear-gradient-19);}.cls-30{clip-path:url(#clip-path-2);}.cls-31{fill:url(#linear-gradient-20);}.cls-32{clip-path:url(#clip-path-3);}.cls-33{fill:url(#linear-gradient-21);}.cls-34{fill:url(#linear-gradient-22);}.cls-35{fill:url(#linear-gradient-23);}.cls-36{fill:url(#linear-gradient-24);}.cls-37{fill:#172182;}.cls-38{fill:url(#linear-gradient-25);}.cls-39{fill:url(#linear-gradient-26);}.cls-40{clip-path:url(#clip-path-4);}.cls-41{fill:url(#linear-gradient-27);}.cls-42{clip-path:url(#clip-path-5);}.cls-43{fill:url(#linear-gradient-28);}.cls-44{fill:url(#linear-gradient-29);}.cls-45{clip-path:url(#clip-path-6);}.cls-46{fill:#95bde5;}.cls-47{fill:url(#linear-gradient-30);}.cls-48{clip-path:url(#clip-path-7);}.cls-49{fill:url(#linear-gradient-31);}.cls-50{clip-path:url(#clip-path-8);}.cls-51{fill:url(#linear-gradient-32);}.cls-52{fill:url(#linear-gradient-33);}.cls-53{clip-path:url(#clip-path-9);}.cls-54{fill:url(#linear-gradient-34);}.cls-55{fill:#0d146e;}.cls-56{clip-path:url(#clip-path-10);}.cls-57{fill:url(#linear-gradient-35);}.cls-58{fill:url(#linear-gradient-37);}.cls-59{fill:url(#linear-gradient-38);}.cls-60{fill:url(#linear-gradient-39);}.cls-61{fill-opacity:0;}.cls-62{fill:#fefeff;opacity:0.02;}.cls-63{fill:#fdfeff;opacity:0.05;}.cls-64{fill:#fcfdff;opacity:0.07;}.cls-65{fill:#fbfdff;opacity:0.09;}.cls-66{fill:#fafcff;opacity:0.11;}.cls-67{fill:#f9fcff;opacity:0.14;}.cls-68{fill:#f8fbff;opacity:0.16;}.cls-69{fill:#f7fafe;opacity:0.18;}.cls-70{fill:#f6fafe;opacity:0.2;}.cls-71{fill:#f5f9fe;opacity:0.23;}.cls-72{fill:#f4f9fe;opacity:0.25;}.cls-73{fill:#f3f8fe;opacity:0.27;}.cls-74{fill:#f2f8fe;opacity:0.3;}.cls-75{fill:#f1f7fe;opacity:0.32;}.cls-76{fill:#f0f6fe;opacity:0.34;}.cls-77{fill:#eff6fe;opacity:0.36;}.cls-78{fill:#eef5fe;opacity:0.39;}.cls-79{fill:#edf5fe;opacity:0.41;}.cls-80{fill:#ecf4fe;opacity:0.43;}.cls-81{fill:#ebf4fe;opacity:0.45;}.cls-82,.cls-83{fill:#eaf3fe;}.cls-82{opacity:0.48;}.cls-83{opacity:0.5;}.cls-84{fill:#e9f2fd;opacity:0.52;}.cls-85{fill:#e8f1fd;opacity:0.55;}.cls-86{fill:#e7f1fd;opacity:0.57;}.cls-87{fill:#e6f0fd;opacity:0.59;}.cls-88{fill:#e5f0fd;opacity:0.61;}.cls-89{fill:#e4effd;opacity:0.64;}.cls-90{fill:#e3effd;opacity:0.66;}.cls-91{fill:#e2eefd;opacity:0.68;}.cls-92{fill:#e1edfd;opacity:0.7;}.cls-93{fill:#e0edfd;opacity:0.73;}.cls-94{fill:#dfecfd;opacity:0.75;}.cls-95{fill:#deecfd;opacity:0.77;}.cls-96{fill:#ddebfd;opacity:0.8;}.cls-97{fill:#dcebfd;opacity:0.82;}.cls-98{fill:#dbeafc;opacity:0.84;}.cls-99{fill:#dae9fc;opacity:0.86;}.cls-100{fill:#d9e9fc;opacity:0.89;}.cls-101{fill:#d8e8fc;opacity:0.91;}.cls-102{fill:#d7e8fc;opacity:0.93;}.cls-103{fill:#d6e7fc;opacity:0.95;}.cls-104{fill:#d5e7fc;opacity:0.98;}.cls-105{fill:#d4e6fc;}.cls-106{fill:url(#linear-gradient-40);}</style><linearGradient id="linear-gradient" x1="-162.63" y1="-30.28" x2="1284.63" y2="-21.32" gradientTransform="matrix(1, 0, 0, -1, 0, 493.27)" gradientUnits="userSpaceOnUse"><stop offset="0" stop-color="#fff"/><stop offset="1" stop-color="#828fa9"/></linearGradient><linearGradient id="linear-gradient-2" x1="422.01" y1="123.43" x2="391.87" y2="123.06" gradientTransform="matrix(1, 0, 0, -1, 0, 493.27)" gradientUnits="userSpaceOnUse"><stop offset="0.31" stop-color="#1831a1"/><stop offset="1" stop-color="#2848bd"/></linearGradient><linearGradient id="linear-gradient-3" x1="1253.54" y1="146.98" x2="-47.47" y2="145.3" gradientTransform="matrix(1, 0, 0, -1, 0, 493.27)" gradientUnits="userSpaceOnUse"><stop offset="0" stop-color="#83a8fa"/><stop offset="1" stop-color="#2848bd"/></linearGradient><linearGradient id="linear-gradient-4" x1="568.44" y1="190.64" x2="602.77" y2="317.06" gradientTransform="matrix(1, 0, 0, -1, 0, 493.27)" gradientUnits="userSpaceOnUse"><stop offset="0" stop-color="#fff"/><stop offset="1" stop-color="#f7fbff"/></linearGradient><linearGradient id="linear-gradient-5" x1="1035.9" y1="-190.63" x2="879.63" y2="120.81" gradientTransform="matrix(1, 0, 0, -1, 0, 493.27)" gradientUnits="userSpaceOnUse"><stop offset="0" stop-color="#20267f"/><stop offset="0.24" stop-color="#212882"/><stop offset="0.42" stop-color="#25308b"/><stop offset="0.57" stop-color="#2d3c9b"/><stop offset="0.71" stop-color="#364db2"/><stop offset="0.85" stop-color="#4364cf"/><stop offset="0.98" stop-color="#537ff2"/><stop offset="1" stop-color="#5684f9"/></linearGradient><linearGradient id="linear-gradient-6" x1="804.68" y1="134.26" x2="1206.54" y2="351.93" xlink:href="#linear-gradient-5"/><linearGradient id="linear-gradient-7" x1="961.79" y1="205.68" x2="537.33" y2="32.38" xlink:href="#linear-gradient-5"/><linearGradient id="linear-gradient-8" x1="935.56" y1="-240.98" x2="779.28" y2="70.46" xlink:href="#linear-gradient-5"/><linearGradient id="linear-gradient-9" x1="446.29" y1="552" x2="425.59" y2="-193.04" gradientTransform="matrix(1, 0, 0, -1, 0, 493.27)" gradientUnits="userSpaceOnUse"><stop offset="0" stop-color="#e8f0fd"/><stop offset="0.17" stop-color="#dee9fd"/><stop offset="0.46" stop-color="#c4d6fc"/><stop offset="0.83" stop-color="#99b8fb"/><stop offset="1" stop-color="#83a8fa"/></linearGradient><linearGradient id="linear-gradient-10" x1="562.41" y1="435.25" x2="680.21" y2="435.25" gradientTransform="matrix(1, 0, 0, -1, 0, 493.27)" gradientUnits="userSpaceOnUse"><stop offset="0" stop-color="#df6981"/><stop offset="1" stop-color="#2c314d"/></linearGradient><linearGradient id="linear-gradient-11" x1="731.48" y1="332.02" x2="860.37" y2="332.02" gradientTransform="matrix(1, 0, 0, -1, 0, 493.27)" gradientUnits="userSpaceOnUse"><stop offset="0" stop-color="#f1cfba"/><stop offset="1" stop-color="#d388a1"/></linearGradient><linearGradient id="linear-gradient-12" x1="688.02" y1="430.14" x2="740.86" y2="430.14" xlink:href="#linear-gradient-10"/><linearGradient id="linear-gradient-13" x1="735.38" y1="316.95" x2="843.37" y2="316.95" xlink:href="#linear-gradient-11"/><linearGradient id="linear-gradient-14" x1="843.61" y1="341.89" x2="599.7" y2="377.61" xlink:href="#linear-gradient-9"/><linearGradient id="linear-gradient-15" x1="836.34" y1="292.26" x2="592.43" y2="327.98" xlink:href="#linear-gradient-9"/><linearGradient id="linear-gradient-16" x1="679.39" y1="409.19" x2="722.43" y2="409.19" xlink:href="#linear-gradient-11"/><clipPath id="clip-path"><path class="cls-1" d="M697,73.34c0-10-1.7-9.3-1.7-9.3-.9-2.8.41-7.7-4.8-9.1-10.2-2.8-8.6,22.4-3.6,22.1,6.4-.5-7.4,19-7.4,19-2.1,7.2,37.4,17.4,37.4,17.4-1.5-10.4,4.1-22.2,5.5-29.7C723.58,78,706.27,72.54,697,73.34Z"/></clipPath><linearGradient id="linear-gradient-17" x1="674.39" y1="416.44" x2="708.92" y2="416.44" xlink:href="#linear-gradient-11"/><linearGradient id="linear-gradient-18" x1="686.81" y1="426.22" x2="695.97" y2="426.22" xlink:href="#linear-gradient-11"/><linearGradient id="linear-gradient-19" x1="693.11" y1="427" x2="747.07" y2="427" xlink:href="#linear-gradient-11"/><clipPath id="clip-path-2"><path class="cls-1" d="M699.18,44.74c-4.41,22.2-9.5,30.2-2.91,41.3,9.7,16.2,13.2,16.6,21.6,18.1,8.2,1.5,20.7-19.3,22.81-23.6,3.5-6.8.69-7.4,2.5-14.7,1.09-4.7,2.4-4.8,3.69-14.1C750.37,27.14,704.58,17.54,699.18,44.74Z"/></clipPath><linearGradient id="linear-gradient-20" x1="666.54" y1="434.58" x2="762.18" y2="434.58" xlink:href="#linear-gradient-11"/><clipPath id="clip-path-3"><path class="cls-1" d="M695.08,62.94c4.6,3.5,10.8,2,15.1-4.5s11.19-25.7,24.69-16.5c2.5,1.7,8.9-5.8,5.5,10.9-2.1,10.3.6,21.2,5.7,31.5s7.7,11.8,4.5,24.8c7.1-12,15-16.1,10.6-33.5-3.5-13.9,10.1-30.3,5.2-42.5s-27.4-25.8-44-15.7c0,0-9.3-3.9-18,5.7C690,39.24,695.08,62.94,695.08,62.94Z"/></clipPath><linearGradient id="linear-gradient-21" x1="699.68" y1="427.33" x2="755.33" y2="427.33" xlink:href="#linear-gradient-10"/><linearGradient id="linear-gradient-22" x1="880.78" y1="301.27" x2="642.27" y2="310.2" xlink:href="#linear-gradient-11"/><linearGradient id="linear-gradient-23" x1="639.58" y1="277.5" x2="756.58" y2="277.5" xlink:href="#linear-gradient-11"/><linearGradient id="linear-gradient-24" x1="840" y1="317.27" x2="596.09" y2="352.99" xlink:href="#linear-gradient-9"/><linearGradient id="linear-gradient-25" x1="879.8" y1="275.14" x2="641.29" y2="284.07" xlink:href="#linear-gradient-11"/><linearGradient id="linear-gradient-26" x1="403.32" y1="-256.39" x2="-3" y2="-75.55" xlink:href="#linear-gradient-5"/><clipPath id="clip-path-4"><path class="cls-1" d="M178.18,611.24c-1.91,7.7-3.41,36.2-8.8,38.6s-37.3,6.4-52.6,6.3-34.9-10-37.7-15.1c-5-9-9.1-16.1,3.6-14.8,18.5,1.8,47.9-8.2,54.7-21.5S178.18,611.24,178.18,611.24Z"/></clipPath><linearGradient id="linear-gradient-27" x1="435.05" y1="-185.09" x2="28.73" y2="-4.26" xlink:href="#linear-gradient-5"/><clipPath id="clip-path-5"><path class="cls-1" d="M234.77,547c.91,7.2,6.1,19.9,2.8,23.7s-38.9,21.6-50,26.7-30.5.2-33.8-2.2,5-10,16.91-18.2,25.7-17.2,26.9-30.8S234.77,547,234.77,547Z"/></clipPath><linearGradient id="linear-gradient-28" x1="129.59" y1="120.79" x2="449.41" y2="35.39" xlink:href="#linear-gradient-5"/><linearGradient id="linear-gradient-29" x1="65.76" y1="93.98" x2="385.57" y2="8.58" xlink:href="#linear-gradient-5"/><clipPath id="clip-path-6"><path class="cls-1" d="M286,97.94c8.4,7.8,8,10.3,7.59,16.5s17.6,15.6,31.5,6.1c7.41-5,7.7-12.6,3.6-18.7s-15.9-21.6-15.9-21.6Z"/></clipPath><linearGradient id="linear-gradient-30" x1="1585.63" y1="-459.63" x2="1723.31" y2="-375.07" gradientTransform="translate(1884.08 -608.94) rotate(171.47)" gradientUnits="userSpaceOnUse"><stop offset="0.04" stop-color="#0f1782"/><stop offset="0.12" stop-color="#0f1782"/><stop offset="1" stop-color="#0168ff"/></linearGradient><clipPath id="clip-path-7"><path class="cls-1" d="M259.18,66.64c-20.41-15.4-3.8-31.1,10-45.5,5.5-5.7,29.3-22.5,41.9-6.8,7.9-2.3,14.9.9,20.6,18.1,7.2,21.5.8,31.9,1.4,50.5l-61-20.8Z"/></clipPath><linearGradient id="linear-gradient-31" x1="325.94" y1="330.79" x2="326.31" y2="400" xlink:href="#linear-gradient-11"/><clipPath id="clip-path-8"><path class="cls-1" d="M311.68,74.14c7-5.1,9.8-6.9,9.8-6.9.5-2.8-.41-8.9,4.79-11.1,10.1-4.2,12,19.9,6.8,20.3-6.7.5,6.7,27.3,22,35.1,9.5,4.8-33.9,20-44.9,18.1-19.2-3.3.2-32.2-12.8-41.3C292.68,85,302.07,74.84,311.68,74.14Z"/></clipPath><linearGradient id="linear-gradient-32" x1="302.55" y1="403.99" x2="371.34" y2="403.99" xlink:href="#linear-gradient-11"/><linearGradient id="linear-gradient-33" x1="260.93" y1="412.99" x2="325.67" y2="416.34" xlink:href="#linear-gradient-11"/><clipPath id="clip-path-9"><path class="cls-1" d="M308.18,63.94c8.5,10.8,21.7,11.1,16.5,22.6-7.7,16.9-11.3,17.8-19.7,20.5-8.21,2.6-22.8-11.6-25-15.7-4.41-8.1-4.6-13-6.5-16.6-2.1-4.1-4.21-4-5.8-12.8a34.72,34.72,0,0,0,14-9c3.8-4,8.8-4.3,14.7-1.6S302.18,56.14,308.18,63.94Z"/></clipPath><linearGradient id="linear-gradient-34" x1="270.42" y1="415.69" x2="356.17" y2="415.69" xlink:href="#linear-gradient-11"/><clipPath id="clip-path-10"><path class="cls-1" d="M380.18,128.74c-38.3,19.9-33.2,88.4-35.7,97.3s-10.41,13.1-8.8,18.5-.2,10.2-8.91,10.2c-11.59,0-.7,44.7,25.71,44.8s25.7-9.2,25.2-16.1c-.8-12.1,8.9-15.6,5.7-21.9s-1.5-9.3,3.7-13.6,4.1-10.9,4.1-10.9,9.5-31.9,15.9-62.5C414.18,141.14,385.18,126.14,380.18,128.74Z"/></clipPath><linearGradient id="linear-gradient-35" x1="210.88" y1="225.13" x2="277.38" y2="225.13" xlink:href="#linear-gradient-11"/><linearGradient id="linear-gradient-37" x1="207.14" y1="203.09" x2="372.38" y2="203.09" xlink:href="#linear-gradient-11"/><linearGradient id="linear-gradient-38" x1="207.14" y1="199.31" x2="372.38" y2="199.31" xlink:href="#linear-gradient-11"/><linearGradient id="linear-gradient-39" x1="752.36" y1="212.44" x2="237.05" y2="-104.2" xlink:href="#linear-gradient-9"/><linearGradient id="linear-gradient-40" x1="570.24" y1="349.26" x2="468.58" y2="277.01" gradientTransform="matrix(1, 0, 0, -1, 0, 493.27)" xlink:href="#linear-gradient-30"/></defs><g id="Layer_2" data-name="Layer 2"><g id="Layer_1-2" data-name="Layer 1"><path class="cls-2" d="M930,490.84l-164.8-3.1,22.5-8.2a12.39,12.39,0,0,0,0-23.3l-220-80.1a78.12,78.12,0,0,0-53.1,0L8.18,560.64a12.38,12.38,0,0,0,0,23.3l220,80.1a78.09,78.09,0,0,0,53.09,0l296.41-108.1,272.09,1.8-1.9-16.2-193.6-13.4,41.1-15c63.5-2,163.5-5.1,197.81-5.1,18.59,0,44.3,19.7,73.4,13.3C978.27,518.84,930,490.84,930,490.84Z"/><path class="cls-3" d="M727.47,216.54a83.87,83.87,0,0,0-57.6,0l-487.5,177.9-32.9,2.8v23.1h0v1h0a19.53,19.53,0,0,0,13.1,17.7l222,80.8a83.87,83.87,0,0,0,57.6,0l509-185.8a18.88,18.88,0,0,0,12.6-17.5h0v-24.4l-23,2Z"/><path class="cls-4" d="M951.18,278l-223.71-81.4a83.87,83.87,0,0,0-57.6,0l-507.3,185.1c-17.5,6.4-17.5,31,0,37.4l222,80.8a83.87,83.87,0,0,0,57.6,0l509-185.8C968.08,308.14,968.08,284.24,951.18,278Z"/><path class="cls-5" d="M951.18,276.94l-223.6-81.4a83.87,83.87,0,0,0-57.6,0L162.57,380.64c-17.5,6.4-17.5,31,0,37.4l222,80.8a83.87,83.87,0,0,0,57.6,0l509-185.8C968.08,307,968.08,283.14,951.18,276.94Z"/><path class="cls-6" d="M946.58,281.64l-220-80.1a78.12,78.12,0,0,0-53.1,0L167.07,386a12.39,12.39,0,0,0,0,23.3l220,80.1a78.12,78.12,0,0,0,53.1,0l506.3-184.6C957.47,300.94,957.47,285.54,946.58,281.64Z"/><path class="cls-7" d="M226,390.64l6.4,2.3,7-2.6L233,388Zm6.5,1.6-4.5-1.6,4.9-1.8,4.5,1.6Z"/><path class="cls-7" d="M234.27,393.64l6.41,2.3,7-2.6-6.41-2.3Zm6.5,1.6-4.5-1.6,4.91-1.8,4.5,1.6Z"/><path class="cls-7" d="M283.37,411.64l6.4,2.3,7-2.6-6.4-2.3Zm6.5,1.6-4.5-1.6,4.9-1.8,4.5,1.6Z"/><path class="cls-7" d="M267.27,411.84l6.41,2.3,7-2.6-6.41-2.3Zm6.5,1.6-4.5-1.6,4.91-1.8,4.5,1.6Z"/><path class="cls-7" d="M217,393.94l6.4,2.3,7-2.6-6.4-2.3Zm6.5,1.6-4.5-1.6,4.9-1.8,4.5,1.6Z"/><path class="cls-7" d="M225.27,396.94l6.41,2.3,7-2.6-6.41-2.3Zm6.5,1.6-4.5-1.6,4.91-1.8,4.5,1.6Z"/><path class="cls-7" d="M278.87,407.74l5,1.8a17.76,17.76,0,0,0-7.4.9l1,.4a16.45,16.45,0,0,1,9.3-.2l1-.4-7.8-2.9Z"/><polygon class="cls-7" points="276.38 407.64 279.18 408.64 282.38 407.54 279.48 406.44 276.38 407.64"/><path class="cls-7" d="M275.37,407.64l3.8,1.4,4.2-1.5-3.8-1.4Zm3.9.6-1.9-.7,2.1-.8,1.9.7Z"/><polygon class="cls-7" points="376.88 442.94 379.77 443.94 382.88 442.84 380.07 441.84 376.88 442.94"/><path class="cls-7" d="M375.87,442.94l3.8,1.4,4.2-1.5-3.8-1.4Zm3.9.7-1.9-.7,2.1-.8,1.9.7Z"/><polygon class="cls-7" points="380.18 443.34 392.57 447.84 393.57 447.54 381.18 442.94 380.18 443.34"/><polygon class="cls-7" points="381.88 449.34 384.77 450.44 387.88 449.24 384.98 448.24 381.88 449.34"/><path class="cls-7" d="M380.87,449.44l3.8,1.4,4.2-1.5-3.8-1.4Zm3.9.6-1.9-.7,2.1-.8,1.9.7Z"/><polygon class="cls-7" points="371.38 444.84 386.18 450.24 387.27 449.84 372.38 444.44 371.38 444.84"/><polygon class="cls-7" points="368.18 448.84 370.98 449.84 374.18 448.74 371.27 447.74 368.18 448.84"/><path class="cls-7" d="M367.18,448.84l3.8,1.4,4.2-1.5-3.8-1.4Zm3.89.7-1.9-.7,2.1-.8,1.9.7Z"/><polygon class="cls-7" points="365.38 447.04 380.18 452.44 381.18 452.04 366.48 446.64 365.38 447.04"/><polygon class="cls-7" points="432.77 462.94 442.77 466.64 443.88 466.24 433.88 462.54 432.77 462.94"/><polygon class="cls-7" points="423.77 462.74 438.57 468.14 439.68 467.74 424.77 462.34 423.77 462.74"/><polygon class="cls-7" points="419.68 464.24 434.48 469.64 435.57 469.24 420.68 463.84 419.68 464.24"/><polygon class="cls-7" points="415.68 465.74 430.38 471.14 431.48 470.74 416.68 465.44 415.68 465.74"/><path class="cls-8" d="M330.07,414.14c-16.09,0-29.2,6.5-29.2,14.5s13.1,14.5,29.2,14.5,29.2-6.5,29.2-14.5S346.18,414.14,330.07,414.14Z"/><polygon class="cls-9" points="317.57 430.94 319.77 431.74 341.48 424.04 339.27 423.14 317.57 430.94"/><polygon class="cls-9" points="318.57 424.44 339.18 431.44 341.48 430.44 320.77 423.54 318.57 424.44"/><polygon class="cls-7" points="260.27 434.44 339.48 462.94 341.48 462.04 262.27 433.54 260.27 434.44"/><path class="cls-4" d="M568.47,125.94,316.07,34c-8.2-3-14.9,2.3-14.9,11.8v73.3c0,9.5,6.7,19.7,14.9,22.7l238.2,86.7,26.8,61.2,2.2-1.1.1-49.5v-90.5C583.37,139.14,576.68,128.94,568.47,125.94Z"/><path class="cls-8" d="M966.37,498.64c-11.6-6.7-23.69-8.3-33.9-20.7a113.28,113.28,0,0,1-12.6-19.9l-15.5,6.9c5.2,5.9,3.7,14.1,6,18.4,4.7,8.7,5.4,11.9,9.5,13.8,15.31,7.1,26.7,20.4,34.81,22.8,13.5,4,19.9-1.4,21.5-3S977,504.84,966.37,498.64Z"/><path class="cls-10" d="M964.47,497.54c-11.6-6.7-25.1-13.6-35.3-25.9a113.28,113.28,0,0,1-12.6-19.9l-18,11.9c5.2,5.9,6.2,9,8.6,13.3,4.7,8.7,5.4,11.9,9.5,13.8,15.3,7.1,26.7,20.4,34.8,22.8,13.5,4,19.9-1.4,21.5-3S975.18,503.74,964.47,497.54Z"/><path id="SVGID" class="cls-11" d="M852.27,388.44c17.6,20.2,44.91,73.7,46.31,75.2,6.3,6.6,24.5-3.6,20.69-9.3-21.19-30.7-37.69-136.6-65-148.7-19.4-8.6-144.19-58.5-144.19-58.5l-19.5,45.1,140.3,42.3C830.87,334.44,836.08,369.84,852.27,388.44Z"/><path id="SVGID-2" data-name="SVGID" class="cls-12" d="M621.87,280.54c.7,36.6,34.9,58.7,63.81,61.4,37.69,3.5,105.9,21,112.19,26.1s.5-1.3-5.5,35.4c-4.5,27.9,22.1,66,13.1,109.7-1.7,8.5,24.9,8.5,24.9,4.1,0-25.2,5.9-125.6,11.2-150.5,5.5-26.1-9.5-38.6-29.2-48.9-11.19-5.9-85.3-39.1-90.69-44.5-10.2-10.2-11.7-26.2-11.7-26.2l-76.5-2.5C633.58,244.54,621.68,271,621.87,280.54Z"/><path class="cls-8" d="M868.87,539.84c-11.4-2.4-35.6-4-38.5-17.1-.3.1-15.5,4.4-24.9-4.1-2.8,12.8-11.4,29.5,1.1,32.1,30.6,6.3,37.7,8.1,55.8,6.8C882.68,556,883.27,542.94,868.87,539.84Z"/><path class="cls-13" d="M867.77,538.24c-11.4-2.4-34.5-7.9-37.4-21-.3.1-15.5,4.4-24.9-4.1-2.8,12.8-11.4,29.5,1.1,32.1,30.6,6.3,37.7,8.1,55.8,6.8C882.68,550.54,882.08,541.34,867.77,538.24Z"/><path class="cls-14" d="M566.18,127.44,313.77,35.54c-8.2-3-14.9,2.3-14.9,11.8v73.3c0,9.5,6.7,19.7,14.9,22.7L552,230l29.1,59.8V150.14C581.08,140.54,574.37,130.44,566.18,127.44Z"/><polygon class="cls-15" points="327.07 77.04 489.38 136.14 489.38 126.04 327.07 66.94 327.07 77.04"/><polygon class="cls-15" points="327.07 98.74 489.38 157.84 489.38 147.74 327.07 88.64 327.07 98.74"/><polygon class="cls-15" points="327.07 120.44 443.07 162.74 443.07 152.64 327.07 110.34 327.07 120.44"/><path class="cls-16" d="M665.08,2.44c-26.2-5.7-16.1,25-35.31,31.8s-30.9,1.7-33.19,21.8-10.9,8-30.4,18.2c-11.5,5.9-12.31,18.2-5.6,23.4s15.19-11.6,36,3.4c22.4,16.2,40.8,10.2,41.9-10.6s.4-24.1,12.1-24.6,17-18.9,18.8-33.3,11.9-14.8,11.9-14.8S685.08,6.84,665.08,2.44Z"/><path class="cls-17" d="M660.68,10.54c-1.31,7-4,24.4-16,30.1s-25.31,2.6-27.91,19.2-11.69,19.4-29.69,17.1c-15.5-2-32.1,9.1-21.1,21.2,6.2-1.8,14.9-8.5,30.5,2.8,22.4,16.2,40.8,10.2,41.9-10.6s.4-24.1,12.1-24.6,17-18.9,18.8-33.3c1.5-11.5,8.2-14.1,10.9-14.6a5.81,5.81,0,0,0-.2-2.4C676,3.74,662.08,3.54,660.68,10.54Z"/><path class="cls-16" d="M743.58,1.74c-6.81,4.8-15.2,13.1-39.1,21.5-25.7,9-17,30-2.9,41.1s17,12.2,9.9,21.3,2.7,22.2,11.8,30.7,3,16.3,3,16.3,5.3,8.3,21.1-4.8c20.7-17-7.6-24.6-.3-42.4s18.3-24.3,5.5-35.9,1.19-12.2,6.3-32C762,5.94,752-4.16,743.58,1.74Z"/><path class="cls-18" d="M854.37,138.24a14.59,14.59,0,0,0-9.69-1.8c-4,.7-7.1,3.2-9.6,4.4-4.2,2-7-2-7.31-5.5s-.3-5-3.19-4.3-1.5,6.6-2.1,10.3a36.15,36.15,0,0,0,0,10.9c.5,4.2-46.2,24.3-48.1,25.6s-29.9-47.5-42.9-64.5l5,57.2s22.4,35.3,31.1,38.3c3.3,1.2,4.9-.8,12.5-6.1s42-31.3,46.8-34.8c5.8-4.2,8.3-1.4,14.6-2.5s12.3-13,10.7-17-7.31-6.1-3.91-7,5.6,2.3,8.7,3.1S863.77,143.24,854.37,138.24Z"/><path class="cls-19" d="M735.37,7.84c-6.3,4.5-15.3,9.9-30.9,15.4-25.7,9-17,30-2.9,41.1s17,12.2,9.9,21.3,2.7,22.2,11.8,30.7a17.6,17.6,0,0,1,2,2.1,22.77,22.77,0,0,0,13.41-18.5c.5-5.2,1.19-10.8,1.9-15.8C742.58,70.84,729,39.54,735.37,7.84Z"/><path class="cls-20" d="M833.68,144.54c-8.91,1.4-5,12.2-8.2,13.4s-53,27-56.6,28.3-9.6-11.8-20.3-30.2l-13.2,1.2,1.2,13.3s22.4,35.3,31.1,38.3c3.3,1.2,4.9-.8,12.5-6.1s42-31.3,46.8-34.8a11,11,0,0,1,4.2-2.1s-6.2-16.3,11.4-21.9C846,142.84,837.58,143.94,833.68,144.54Z"/><path class="cls-21" d="M707.77,100.74c-6,3.8-1.8,12.5,1.31,28.4,3.5,18.1,14.3,36.8,14.3,36.8s13.1,4.1,35.9-11.6c0,0-9.9-22.9-16.8-34.9C738.18,111.84,715.08,96,707.77,100.74Z"/><path class="cls-9" d="M683.18,11.54c-9.91-2.8-18.6,14,4.5,25.9l10.4-17.2C698.08,20.34,694.68,14.74,683.18,11.54Z"/><path class="cls-9" d="M719.58,25.74l19.19,5.8s4.5-4.8,4.81-16.7C743.77,4.64,725.37.34,719.58,25.74Z"/><path class="cls-16" d="M716.47,11.54c-14.9-5.8-35,14.6-37.5,28.5s7.9,37,7.1,47l39.2-58.4S738.77,20.14,716.47,11.54Z"/><path id="SVGID-3" data-name="SVGID" class="cls-22" d="M666,82.94c17.3,9.2,51,30.5,51,30.5l7-8.2c14.6,8.2,14.6,15.3,18.6,32.9,14.1,62.6-5.2,47.7-23.7,108-6.4,20.8-98.5,37.2-85.69-2.8,6.3-19.5,12.9-55,6.3-78s-14.3-31.4,16.4-59.8Z"/><path class="cls-23" d="M666,82.94l-10.1,22.7c-30.69,28.4-23,36.8-16.4,59.8s2.9-19.1,11.2-33.9,31.4-4.4,37.4-33.8l-.7-2.4C679.68,90.64,671.87,86,666,82.94Z"/><path id="SVGID-4" data-name="SVGID" class="cls-24" d="M697,73.34c0-10-1.7-9.3-1.7-9.3-.9-2.8.41-7.7-4.8-9.1-10.2-2.8-8.6,22.4-3.6,22.1,6.4-.5-7.4,19-7.4,19-2.1,7.2,37.4,17.4,37.4,17.4-1.5-10.4,4.1-22.2,5.5-29.7C723.58,78,706.27,72.54,697,73.34Z"/><g class="cls-25"><path class="cls-26" d="M693.18,37.54c-45.81,77.2,5.5,76.7,15.8,78.6l-8-26.5Z"/></g><path class="cls-27" d="M718,99.94a24.28,24.28,0,0,0-1.1,13.5,11.81,11.81,0,0,0,6.7-6.8C725.77,101.24,718.18,99,718,99.94Z"/><path class="cls-28" d="M687.68,61.94c-1.31,2.9-2,13.6,4.4,12.2,7.9-1.8,1.3-9.2,1.3-9.2C690,58.44,689,59,687.68,61.94Z"/><path id="SVGID-5" data-name="SVGID" class="cls-29" d="M699.18,44.74c-4.41,22.2-9.5,30.2-2.91,41.3,9.7,16.2,13.2,16.6,21.6,18.1,8.2,1.5,20.7-19.3,22.81-23.6,3.5-6.8.69-7.4,2.5-14.7,1.09-4.7,2.4-4.8,3.69-14.1C750.37,27.14,704.58,17.54,699.18,44.74Z"/><g class="cls-30"><path class="cls-31" d="M695.08,17.44v45.5c-5.9,4.2-34.81-2.2-27.31,7.3,25.2,32,53.5,40.6,50.1,33.9-6.3-12.4-7.19-17.8-6.19-21.2,6.19-22-2.91-24.2,16.8-30.6,6-1.9,15.4,14,21.7,13.9,4.69,0,12-14.3,12-14.3l-15.1-40.8Z"/></g><path id="SVGID-6" data-name="SVGID" class="cls-16" d="M695.08,62.94c4.6,3.5,10.8,2,15.1-4.5s11.19-25.7,24.69-16.5c2.5,1.7,8.9-5.8,5.5,10.9-2.1,10.3.6,21.2,5.7,31.5s7.7,11.8,4.5,24.8c7.1-12,15-16.1,10.6-33.5-3.5-13.9,10.1-30.3,5.2-42.5s-27.4-25.8-44-15.7c0,0-9.3-3.9-18,5.7C690,39.24,695.08,62.94,695.08,62.94Z"/><g class="cls-32"><path class="cls-33" d="M749.18,58.24c6.19-22.5-16.5-38.5-23.41-35-2.4,1.2,11.2,13.2,1.41,12.1s-15.41,20.5-27.5,32L745.77,90s9.41,4.6,4.91,19.1C763.37,94,745.27,72.54,749.18,58.24Z"/></g><path class="cls-27" d="M682,95.54c1.1-3,2.5-5.2,4.5-10.8-7.4-2.7-19.6-3.9-20.5-1.8-2.6,5.9,7.4,13.8,20.9,20.2C686.77,103,680.68,99,682,95.54Z"/><path class="cls-23" d="M641.47,176.64c.3,1.3.9,2,1.8,2.2C641.87,174.94,641,173.64,641.47,176.64Z"/><path class="cls-23" d="M689.58,202.94c-12.1-1.7-5.6-35.7-16.6-48.8,0,0-22.7,26.2-29.6,24.7,4,10.9,11.7,42.2,1.5,60.6-4.4,8-5.4,17.8-5.4,23.8,14.5,12.6,67-2.7,75.5-20.9C737.27,194.44,706.58,205.34,689.58,202.94Z"/><path class="cls-34" d="M718.77,226.34l-24.9,2.2s-15.19-32.7-21.8-56.2-14.7-58.8-14.7-58.8c-24.69,11.1-27.9,27-21.1,56.1,4.31,18.2,18.31,44.2,28.31,62.7,6,11.1,7.4,20.5,13.1,21.4,36.59,6.3,74.19-12,126.9-26.2a22.28,22.28,0,0,0-4.4-12.9C800.08,214.64,741.58,224.34,718.77,226.34Z"/><path class="cls-35" d="M688.08,239.64c-5.5-4.6-25.81-34.6-36.4-63l-12.1,4c6.1,16.7,16.8,36.6,24.9,51.6,6,11.1,7.4,20.5,13.1,21.4,24.5,4.2,49.4-2.6,79-11.8C732.47,244.44,693.58,244.24,688.08,239.64Z"/><path class="cls-36" d="M667.58,134.54c.3-.8-8-23.4-8-23.4-23.5,7.6-26.5,18.1-26.5,34.4,0,18.5,7,38.9,7,38.9s12,6.5,37.5-4.5C677.58,179.84,667.27,135.34,667.58,134.54Z"/><path class="cls-23" d="M633.08,145.54c0,18.5,7,39,7,39s4.3,2.3,13.19,1.8c-2.5-12.9-8.5-53.4,10.31-64-2-5.7-4-11.3-4-11.3C636.08,118.74,633.08,129.24,633.08,145.54Z"/><path class="cls-8" d="M853.68,178.74a2.13,2.13,0,0,0-2.31-.6l-21.4,7.8a13.67,13.67,0,0,0-7.3,6.3l-24.2,44.6c-.6,1.1,0,2,.8,2.7.41.4,2.41,3,3.1,2.7l20.9-12.1a12.87,12.87,0,0,0,6.5-5.9l27.2-41.7C857.37,181.84,854.27,179.34,853.68,178.74Z"/><path class="cls-37" d="M854.18,180.84l-21.41,7.8a13.74,13.74,0,0,0-7.3,6.3l-24.2,44.6a2.08,2.08,0,0,0,2.6,2.9L826,233a12.9,12.9,0,0,0,6.5-5.9l24.2-43.3A2.08,2.08,0,0,0,854.18,180.84Z"/><path class="cls-38" d="M835.27,208.54c1.31-3.8-.8-4.5-2.09-3.9s-1.1,4.4-4.6,6.7-16.6,2.2-14.7-2.8,1.7-8.2-2-4.8-4.6,6.7-12.3,11.4c0,0-3.4,10,4.6,12.2s22.5,2.4,25.5.9,2.8-6.9,5-10.4,2.5-7.4,2-8.6A1.18,1.18,0,0,0,835.27,208.54Z"/><path class="cls-23" d="M283.07,154.34c.8-32.3-6.9-34.3-9-29.8-16.3,34.9-27.59,87.2-28.09,96.1s-3.5,8.6-2.41,12.5-12.3,1.5-7.09,11.9c3.4,6.8,32.29,36.3,44.5,24.2s6.79-39.2,8.9-45.3a24.55,24.55,0,0,0,1.1-11.4S282.27,184.14,283.07,154.34Z"/><path id="SVGID-7" data-name="SVGID" class="cls-39" d="M178.18,611.24c-1.91,7.7-3.41,36.2-8.8,38.6s-37.3,6.4-52.6,6.3-34.9-10-37.7-15.1c-5-9-9.1-16.1,3.6-14.8,18.5,1.8,47.9-8.2,54.7-21.5S178.18,611.24,178.18,611.24Z"/><g class="cls-40"><path class="cls-8" d="M183.57,635.54c-13,7.3-26.2,8.8-38.2,10.4s-25,4.7-32.5,4.2c-12.5-.9-33.7-14-37.8-22.8-3.5-7.7-16.7,4.4-16.7,4.4l29.7,30L170,662s26.9-7.4,26-8.6S183.57,635.54,183.57,635.54Z"/></g><path id="SVGID-8" data-name="SVGID" class="cls-41" d="M234.77,547c.91,7.2,6.1,19.9,2.8,23.7s-38.9,21.6-50,26.7-30.5.2-33.8-2.2,5-10,16.91-18.2,25.7-17.2,26.9-30.8S234.77,547,234.77,547Z"/><g class="cls-42"><path class="cls-8" d="M240.07,557c-7.4,10.6-23.7,17.3-31.9,22.7s-26.8,15.8-32.8,15.6-9.8-6-17.3-5.9-10.09,6-10.09,6l30.2,15.7,59.7-27.1s17.5-15.3,16.5-16S240.07,557,240.07,557Z"/></g><path class="cls-43" d="M316.77,298.14c-6.4,4.9-54.29,21-101.79,54-49.5,34.5-40.71,42.4-37.3,59,7,33.9,31.8,97.1,25.59,130.8-1.29,6.8,31.5,9.7,31.5,5.1,0-4.9.41-9.8,1.41-23.7,6.59-97.1-15.7-97-7-103.8,40.09-31.3,136.7-40.8,171.9-78.2C452.68,286.34,351.27,271.94,316.77,298.14Z"/><path class="cls-44" d="M332.68,306.54c-7.7,2.4-25.2,21.2-90.3,61.3-51.4,31.7-62.8,42.5-64.2,63.5-3,43-18.3,133.1-35.41,168-2.9,6,27.71,26.4,35.41,11.8,66.4-124.4,50.09-165.3,60.5-168.7,48.4-15.9,107.8-41.8,153.09-67.4,20.8-11.7,22.6-53,19.91-64.1C405.68,286.74,361.18,297.74,332.68,306.54Z"/><g class="cls-45"><path class="cls-1" d="M283.37,84.64c-.2.8,3.7,37.1,12.6,35.7s9.7-9.5,2.7-38.3C298.68,82.14,283.48,83.84,283.37,84.64Z"/></g><path class="cls-46" d="M376.37,153.34c-8.3,11.2.3,27.1-2.9,43.3-3.4,17.7-7.3,42.3-7.3,42.3-12.7-.6-37.3-1-58.7-1.7-8.5-.3-13.7,12-6.9,15.4,19.7,9.7,44.1,9.8,59.7,13.6,13.5,3.3,17.3,1.2,22.9-11.5,4.4-9.9,5.4-29.6,12.1-49.2s16.9-48.3,5.3-61S384.68,142.14,376.37,153.34Z"/><path class="cls-4" d="M328.18,91.14l-32.91,14.1L276.07,151l83.8-41.2-3.5-17.5C347.77,87.84,328.18,91.14,328.18,91.14Z"/><path id="SVGID-9" data-name="SVGID" class="cls-47" d="M259.18,66.64c-20.41-15.4-3.8-31.1,10-45.5,5.5-5.7,29.3-22.5,41.9-6.8,7.9-2.3,14.9.9,20.6,18.1,7.2,21.5.8,31.9,1.4,50.5l-61-20.8Z"/><g class="cls-48"><path class="cls-46" d="M296.87,32.64c.3-2.6,4.6-11,10.6-16.9.3-3-3-5.2-9.3-.5-7.9,5.9-7.7,12.1-14.1,25.2-5.9,12-9,9.8-21.5,18-3.8,2.5-5.3,9.2-5.3,9.2l21.6-.9,39.1,3.1,2.5-1C312.77,59.84,295.57,45.34,296.87,32.64Z"/></g><path id="SVGID-10" data-name="SVGID" class="cls-49" d="M311.68,74.14c7-5.1,9.8-6.9,9.8-6.9.5-2.8-.41-8.9,4.79-11.1,10.1-4.2,12,19.9,6.8,20.3-6.7.5,6.7,27.3,22,35.1,9.5,4.8-33.9,20-44.9,18.1-19.2-3.3.2-32.2-12.8-41.3C292.68,85,302.07,74.84,311.68,74.14Z"/><g class="cls-50"><path class="cls-51" d="M310.37,97.54c24.7.4,27.8,39.1,27.8,39.1,28.8-6.4,60.5-15.1-7.1-94.7C331.18,41.94,284.48,97.14,310.37,97.54Z"/></g><path class="cls-46" d="M324.07,67.74c0,1.9.41,6,3.3,6.9,6.4,2.1,4.6-9.7,2.8-12.2S324.27,60.44,324.07,67.74Z"/><path id="SVGID-11" data-name="SVGID" class="cls-52" d="M308.18,63.94c8.5,10.8,21.7,11.1,16.5,22.6-7.7,16.9-11.3,17.8-19.7,20.5-8.21,2.6-22.8-11.6-25-15.7-4.41-8.1-4.6-13-6.5-16.6-2.1-4.1-4.21-4-5.8-12.8a34.72,34.72,0,0,0,14-9c3.8-4,8.8-4.3,14.7-1.6S302.18,56.14,308.18,63.94Z"/><g class="cls-53"><path class="cls-54" d="M271.18,53.54c-6.41,29.2,30.09,6,29,14.7-2.7,20.2,8,19.4,7,26.5-2.3,17-15.41,26-14.7,25.7l19.2-12.4c-4-1.8,41.2-2,36.09-10.5-5.2-8.8,8.6-13.6,8.5-17.9C353.27,8.74,274.27,39.54,271.18,53.54Z"/></g><path class="cls-23" d="M344.27,119.54c-44.79,17.7-42.7-8.8-42.7-8.8L273,160.14l16.79,153.1s53.1,43.7,123,12.7C412.68,326,389.07,101.84,344.27,119.54Z"/><path class="cls-23" d="M303.37,189.14c-3-20.2-.8-56.8-.8-56.8s.1-22.4-6.09-25c-4.71-1.9-11.5,30.6-11.5,30.6s11.4,132.4,6,162c-2.41,13.1-1.3,13.4-1.3,13.4s25-25.1,20.8-48.3S306.37,209.34,303.37,189.14Z"/><path class="cls-8" d="M416.57,197.84c.41-14.7-9.59-73.6-23.09-78.6-14.5-5.4-16-6.9-20.3-10.4s-16.8-16.6-16.8-16.6-6.8,16.9-31.1,28.3c0,0,8.6,17.2,9.5,25.1,1.3,11.5-12-79.6,17.1,211.2,0,0,71.4-13.4,68.3-35.7C413.07,271,414.18,279,416.57,197.84Z"/><path class="cls-55" d="M294.68,106.44a4.53,4.53,0,0,0,.59-1.2Z"/><path class="cls-55" d="M294.68,106.44c-1.2,1.8-4.91,5.6-15.3,10.1-14,6-10.4,39.4-10.5,54.8-.3,35.6,14.8,75.8,16.2,112.3.9,23.8,5.4,15-18.2,31.1v21.6c13.1-3.8,31.8-31.6,31.9-47.1.5-60.8-3.3-99.4.4-148.4.2-2.8-5.5-26.2-5.5-26.2A12.15,12.15,0,0,1,294.68,106.44Z"/><path class="cls-55" d="M380.18,159.74c-21.41,17.6-19.7,71.1-21.3,78.7s-4.5,9.9-3.8,14.3,2.3,7.5-2.4,7.7c-6.3.3-1.6,7.7-10.91,6.8s-12.9-14-14-1c-1,11.4,24,90.7,24,90.7,9.3-2.9,29.5-7.6,29.5-7.6-5.79-28.4,3.1-67.6,3.1-72,0-10.1,9.5-29.7,9.5-29.7s6.3-26.8,10.9-52.6C409.77,167,383,157.44,380.18,159.74Z"/><path class="cls-55" d="M334.57,115.74l-10.8,4.8s4.3,20.7,5.21,22.8,2.59,11.9,2.4,15.6,2.5,129.8,2.5,129.8,17.6,59.7,17.7,53,30.8-192.1,30.1-206.7C381.77,135,366.57,133.94,334.57,115.74Z"/><path id="SVGID-12" data-name="SVGID" class="cls-9" d="M380.18,128.74c-38.3,19.9-33.2,88.4-35.7,97.3s-10.41,13.1-8.8,18.5-.2,10.2-8.91,10.2c-11.59,0-.7,44.7,25.71,44.8s25.7-9.2,25.2-16.1c-.8-12.1,8.9-15.6,5.7-21.9s-1.5-9.3,3.7-13.6,4.1-10.9,4.1-10.9,9.5-31.9,15.9-62.5C414.18,141.14,385.18,126.14,380.18,128.74Z"/><g class="cls-56"><path class="cls-23" d="M373.27,133.14l-20.5-6.2L245.18,249l121.4,72.8s13.3-28.3,10.6-36.4-24.5-25-21.41-27.2,19.71,5.3,19.71,3.1-7.1-8.2-10.3-15.1,1-7.2,9.5-8.2,8.8-43.3,13.09-63.5C392.27,154.14,390.18,139.34,373.27,133.14Z"/></g><path class="cls-57" d="M243.18,243.14,210.88,289l22.2,5.2s47.8-25,44.1-36.1S254.48,239,243.18,243.14Z"/><path class="cls-57" d="M243.18,243.14,210.88,289l22.2,5.2s47.8-25,44.1-36.1S254.48,239,243.18,243.14Z"/><path class="cls-8" d="M229.87,265.94a14.1,14.1,0,0,0-7.3-6.3l-21.4-7.8a2.17,2.17,0,0,0-2.3.6c-.5.6-3.7,3.1-3.2,4l27.2,41.7a14.28,14.28,0,0,0,6.5,5.9l20.9,12.1c.71.3,2.71-2.3,3.1-2.7a2.37,2.37,0,0,0,.8-2.7Z"/><path class="cls-37" d="M227.07,268.74a14.06,14.06,0,0,0-7.3-6.3l-21.4-7.8a2.06,2.06,0,0,0-2.5,2.9l24.2,43.3a14.28,14.28,0,0,0,6.5,5.9l22.1,9.4a2.06,2.06,0,0,0,2.6-2.9Z"/><path class="cls-58" d="M341.87,268.94c-8.5,1-62,8.5-75.3,11.2s-16.3,2-27.4-4.6-13-5.4-11.8-1.2,10.4,5.9,6.8,9.6-13.5.8-13.5.8c-4.8-1.7-14.8-3.9-13.4.6s-.8,14.2,10.5,21.4,21.1,5.1,27,1.2c18.6-12.2,37-6.9,60.6-6.9,13.1,0,69.8-2.1,66.9-8.8S353.18,267.64,341.87,268.94Z"/><path class="cls-59" d="M343.68,276.54c-8.5,1-54.41,6.3-67.8,8.9s-20.6.4-24.3,4.1-29.3,4.8-29.3,4.8c-4.8-1.7-16.5-13.6-15-9s-.8,14.2,10.5,21.4,21.1,5.1,27,1.2c18.6-12.2,37-6.9,60.6-6.9,13.1,0,69.8-2.1,66.9-8.8S355,275.24,343.68,276.54Z"/><path class="cls-4" d="M710.27,376.94,457.87,285c-8.2-3-14.9,2.3-14.9,11.8v90.5l-3,50.4,3-1.2,29.1-38.6,238.2,86.7c8.2,3,14.9-2.3,14.9-11.8v-73.3C725.27,390,718.58,379.94,710.27,376.94Z"/><path class="cls-60" d="M707.27,378.14l-252.4-91.9c-8.2-3-14.9,2.3-14.9,11.8v139.8l29.1-38.6,238.2,86.7c8.2,3,14.9-2.3,14.9-11.8v-73.3C722.18,391.34,715.58,381.14,707.27,378.14Z"/><path class="cls-61" d="M536.58,129.44c-18.9-6.9-34.31,5.2-34.31,27.1s15.31,45.2,34.31,52,34.3-5.2,34.3-27.1S555.47,136.34,536.58,129.44Z"/><path class="cls-62" d="M536.58,129.74c-18.81-6.8-34,5.2-34,26.9s15.19,44.8,34,51.7,34-5.2,34-26.9S555.27,136.54,536.58,129.74Z"/><path class="cls-63" d="M536.58,130c-18.7-6.8-33.81,5.2-33.81,26.7s15.1,44.5,33.81,51.3,33.8-5.2,33.8-26.7S555.18,136.84,536.58,130Z"/><path class="cls-64" d="M536.58,130.34c-18.5-6.7-33.5,5.1-33.5,26.5s15,44.2,33.5,50.9,33.5-5.1,33.5-26.5S555.08,137,536.58,130.34Z"/><path class="cls-65" d="M536.58,130.54c-18.4-6.7-33.31,5.1-33.31,26.3s14.91,43.8,33.31,50.5,33.3-5.1,33.3-26.3S554.87,137.24,536.58,130.54Z"/><path class="cls-66" d="M536.58,130.84c-18.2-6.6-33,5.1-33,26.1s14.8,43.5,33,50.1,33-5.1,33-26.1S554.77,137.54,536.58,130.84Z"/><path class="cls-67" d="M536.58,131.14c-18.1-6.6-32.81,5-32.81,25.9s14.7,43.2,32.81,49.8,32.8-5,32.8-25.9S554.68,137.74,536.58,131.14Z"/><path class="cls-68" d="M536.58,131.44c-18-6.5-32.5,5-32.5,25.7s14.6,42.8,32.5,49.4,32.5-5,32.5-25.7S554.47,137.94,536.58,131.44Z"/><path class="cls-69" d="M536.58,131.74c-17.81-6.5-32.31,4.9-32.31,25.5s14.41,42.5,32.31,49,32.3-4.9,32.3-25.5S554.37,138.24,536.58,131.74Z"/><path class="cls-70" d="M536.58,132c-17.7-6.4-32,4.9-32,25.3s14.3,42.2,32,48.6,32-4.9,32-25.3S554.18,138.44,536.58,132Z"/><path class="cls-71" d="M536.58,132.34c-17.5-6.4-31.81,4.9-31.81,25.1s14.2,41.9,31.81,48.2,31.8-4.9,31.8-25.1S554.08,138.74,536.58,132.34Z"/><path class="cls-72" d="M536.58,132.64c-17.4-6.3-31.5,4.8-31.5,24.9s14.1,41.5,31.5,47.9,31.5-4.8,31.5-24.9S554,138.94,536.58,132.64Z"/><path class="cls-73" d="M536.58,132.94c-17.31-6.3-31.31,4.7-31.31,24.7s14,41.2,31.31,47.5,31.3-4.8,31.3-24.7S553.77,139.14,536.58,132.94Z"/><path class="cls-74" d="M536.58,133.14c-17.1-6.2-31,4.7-31,24.5s13.9,40.9,31,47.1,31-4.7,31-24.5S553.68,139.44,536.58,133.14Z"/><path class="cls-75" d="M536.58,133.44c-17-6.2-30.81,4.7-30.81,24.3s13.81,40.5,30.81,46.7,30.8-4.7,30.8-24.3S553.47,139.64,536.58,133.44Z"/><path class="cls-76" d="M536.58,133.74c-16.9-6.1-30.5,4.7-30.5,24.1s13.69,40.2,30.5,46.3,30.5-4.7,30.5-24.1S553.37,139.94,536.58,133.74Z"/><path class="cls-77" d="M536.58,134c-16.7-6.1-30.31,4.6-30.31,23.9s13.5,39.9,30.31,46,30.3-4.6,30.3-23.9S553.27,140.14,536.58,134Z"/><path class="cls-78" d="M536.58,134.34c-16.6-6-30,4.6-30,23.7s13.4,39.5,30,45.6,30-4.6,30-23.7S553.08,140.34,536.58,134.34Z"/><path class="cls-79" d="M536.58,134.64c-16.4-6-29.81,4.6-29.81,23.5s13.31,39.2,29.81,45.2,29.8-4.6,29.8-23.5S553,140.64,536.58,134.64Z"/><path class="cls-80" d="M536.58,134.94c-16.31-5.9-29.5,4.5-29.5,23.3s13.19,38.9,29.5,44.8,29.5-4.5,29.5-23.3S552.87,140.84,536.58,134.94Z"/><path class="cls-81" d="M536.58,135.24c-16.2-5.9-29.31,4.5-29.31,23.1s13.1,38.6,29.31,44.4,29.3-4.5,29.3-23.1S552.68,141.14,536.58,135.24Z"/><path class="cls-82" d="M536.58,135.54c-16-5.8-29,4.4-29,22.9s13,38.2,29,44.1,29-4.4,29-22.9S552.58,141.34,536.58,135.54Z"/><path class="cls-83" d="M536.58,135.84c-15.9-5.8-28.81,4.4-28.81,22.7s12.91,37.9,28.81,43.7,28.8-4.4,28.8-22.7S552.37,141.54,536.58,135.84Z"/><path class="cls-84" d="M536.58,136c-15.7-5.7-28.5,4.4-28.5,22.5s12.8,37.6,28.5,43.3,28.5-4.4,28.5-22.5S552.27,141.84,536.58,136Z"/><path class="cls-85" d="M536.58,136.34c-15.6-5.7-28.31,4.3-28.31,22.3s12.7,37.2,28.31,42.9,28.3-4.3,28.3-22.3S552.18,142,536.58,136.34Z"/><path class="cls-86" d="M536.58,136.64c-15.5-5.6-28,4.3-28,22.1s12.5,36.9,28,42.5,28-4.3,28-22.1S552,142.24,536.58,136.64Z"/><path class="cls-87" d="M536.58,136.94c-15.31-5.6-27.81,4.2-27.81,21.9s12.41,36.6,27.81,42.2,27.8-4.2,27.8-21.9S551.87,142.54,536.58,136.94Z"/><path class="cls-88" d="M536.58,137.24c-15.2-5.5-27.5,4.2-27.5,21.8s12.3,36.2,27.5,41.8,27.5-4.2,27.5-21.8S551.68,142.74,536.58,137.24Z"/><path class="cls-89" d="M536.58,137.54c-15.1-5.5-27.31,4.2-27.31,21.6s12.2,35.9,27.31,41.4,27.3-4.2,27.3-21.6S551.58,143,536.58,137.54Z"/><path class="cls-90" d="M536.58,137.84c-14.9-5.4-27,4.1-27,21.4s12.1,35.6,27,41,27-4.1,27-21.4S551.47,143.24,536.58,137.84Z"/><path class="cls-91" d="M536.58,138.14c-14.81-5.4-26.81,4.1-26.81,21.2s12,35.3,26.81,40.6,26.8-4.1,26.8-21.2S551.27,143.44,536.58,138.14Z"/><path class="cls-92" d="M536.58,138.44c-14.6-5.3-26.5,4.1-26.5,21s11.9,34.9,26.5,40.2,26.5-4.1,26.5-21S551.18,143.74,536.58,138.44Z"/><path class="cls-93" d="M536.58,138.64c-14.5-5.3-26.31,4-26.31,20.8s11.81,34.6,26.31,39.9,26.3-4,26.3-20.8S551.08,143.94,536.58,138.64Z"/><path class="cls-94" d="M536.58,138.94c-14.4-5.2-26,4-26,20.6s11.6,34.3,26,39.5,26-4,26-20.6S550.87,144.24,536.58,138.94Z"/><path class="cls-95" d="M536.58,139.24c-14.2-5.2-25.81,3.9-25.81,20.4s11.5,33.9,25.81,39.1,25.8-3.9,25.8-20.4S550.77,144.44,536.58,139.24Z"/><path class="cls-96" d="M536.58,139.54c-14.1-5.1-25.5,3.9-25.5,20.2s11.4,33.6,25.5,38.7,25.5-3.9,25.5-20.2S550.58,144.64,536.58,139.54Z"/><path class="cls-97" d="M536.58,139.84c-13.9-5.1-25.2,3.9-25.2,20s11.3,33.3,25.2,38.3,25.19-3.9,25.19-20S550.47,144.94,536.58,139.84Z"/><path class="cls-98" d="M536.58,140.14c-13.81-5-25,3.8-25,19.8s11.19,32.9,25,38,25-3.8,25-19.8S550.37,145.14,536.58,140.14Z"/><path class="cls-99" d="M536.58,140.44c-13.7-5-24.7,3.8-24.7,19.6s11.1,32.6,24.7,37.6,24.69-3.8,24.69-19.6S550.18,145.44,536.58,140.44Z"/><path class="cls-100" d="M536.58,140.74c-13.5-4.9-24.5,3.7-24.5,19.4s11,32.3,24.5,37.2,24.5-3.7,24.5-19.4S550.08,145.64,536.58,140.74Z"/><path class="cls-101" d="M536.58,141c-13.4-4.9-24.2,3.7-24.2,19.2s10.9,32,24.2,36.8,24.19-3.7,24.19-19.2S549.87,145.84,536.58,141Z"/><path class="cls-102" d="M536.58,141.24c-13.31-4.8-24,3.7-24,19s10.69,31.6,24,36.4,24-3.7,24-19S549.77,146.14,536.58,141.24Z"/><path class="cls-103" d="M536.58,141.54c-13.1-4.8-23.7,3.6-23.7,18.8s10.6,31.3,23.7,36.1,23.69-3.6,23.69-18.8S549.68,146.34,536.58,141.54Z"/><path class="cls-104" d="M536.58,141.84c-13-4.7-23.5,3.6-23.5,18.6s10.5,31,23.5,35.7,23.5-3.6,23.5-18.6S549.47,146.64,536.58,141.84Z"/><path class="cls-105" d="M536.58,142.14c-12.81-4.7-23.2,3.6-23.2,18.4s10.4,30.6,23.2,35.3,23.19-3.6,23.19-18.4S549.37,146.84,536.58,142.14Z"/><path class="cls-106" d="M530.18,145.34c-13-4.7-23.5,3.6-23.5,18.6s10.5,31,23.5,35.7,23.5-3.6,23.5-18.6S543.18,150,530.18,145.34Z"/><path class="cls-9" d="M530.18,156.54c-4.1-1.5-7.41,1.3-7.41,6.3s3.31,10.9,7.41,12.4,7.4-2,7.4-7S534.27,158,530.18,156.54Z"/><path class="cls-9" d="M530.18,178.34c-8.1-3-14.7-2.4-14.7,1.3s6.6,11.3,14.7,14.3,14.69.1,14.69-3.6S538.27,181.34,530.18,178.34Z"/><path class="cls-61" d="M492.68,313.44c-18.91-6.9-34.3,5.2-34.3,27.1s15.3,45.2,34.3,52,34.3-5.2,34.3-27.1S511.58,320.34,492.68,313.44Z"/><path class="cls-62" d="M492.68,313.74c-18.8-6.8-34,5.2-34,26.9s15.2,44.8,34,51.7,34-5.2,34-26.9S511.47,320.54,492.68,313.74Z"/><path class="cls-63" d="M492.68,313.94c-18.7-6.8-33.8,5.2-33.8,26.7s15.1,44.5,33.8,51.3,33.8-5.2,33.8-26.7S511.27,320.74,492.68,313.94Z"/><path class="cls-64" d="M492.68,314.24c-18.5-6.7-33.5,5.1-33.5,26.5s15,44.2,33.5,50.9,33.5-5.1,33.5-26.5S511.18,321,492.68,314.24Z"/><path class="cls-65" d="M492.68,314.54c-18.41-6.7-33.3,5.1-33.3,26.3s14.9,43.8,33.3,50.5S526,386.24,526,365,511.08,321.24,492.68,314.54Z"/><path class="cls-66" d="M492.68,314.84c-18.2-6.6-33,5.1-33,26.1s14.8,43.5,33,50.1,33-5.1,33-26.1S510.87,321.54,492.68,314.84Z"/><path class="cls-67" d="M492.68,315.14c-18.1-6.6-32.8,5-32.8,25.9s14.7,43.2,32.8,49.8,32.8-5,32.8-25.9S510.77,321.74,492.68,315.14Z"/><path class="cls-68" d="M492.68,315.44c-18-6.5-32.5,5-32.5,25.7s14.59,42.8,32.5,49.4,32.5-5,32.5-25.7S510.58,321.94,492.68,315.44Z"/><path class="cls-69" d="M492.68,315.74c-17.8-6.5-32.3,4.9-32.3,25.5s14.4,42.5,32.3,49,32.3-4.9,32.3-25.5S510.47,322.24,492.68,315.74Z"/><path class="cls-70" d="M492.68,316c-17.7-6.4-32,4.9-32,25.3s14.3,42.2,32,48.6,32-4.9,32-25.3S510.37,322.44,492.68,316Z"/><path class="cls-71" d="M492.68,316.34c-17.5-6.4-31.8,4.9-31.8,25.1s14.2,41.9,31.8,48.2,31.8-4.9,31.8-25.1S510.18,322.74,492.68,316.34Z"/><path class="cls-72" d="M492.68,316.64c-17.41-6.3-31.5,4.8-31.5,24.9s14.09,41.5,31.5,47.9,31.5-4.8,31.5-24.9S510.08,322.94,492.68,316.64Z"/><path class="cls-73" d="M492.68,316.84c-17.31-6.3-31.3,4.8-31.3,24.7s14,41.2,31.3,47.5,31.3-4.8,31.3-24.7S510,323.14,492.68,316.84Z"/><path class="cls-74" d="M492.68,317.14c-17.1-6.2-31,4.7-31,24.5s13.9,40.9,31,47.1,31-4.7,31-24.5S509.77,323.44,492.68,317.14Z"/><path class="cls-75" d="M492.68,317.44c-17-6.2-30.8,4.7-30.8,24.3s13.8,40.5,30.8,46.7,30.8-4.7,30.8-24.3S509.68,323.64,492.68,317.44Z"/><path class="cls-76" d="M492.68,317.74c-16.91-6.1-30.5,4.7-30.5,24.1s13.69,40.2,30.5,46.3,30.5-4.7,30.5-24.1S509.47,323.84,492.68,317.74Z"/><path class="cls-77" d="M492.68,318c-16.7-6.1-30.3,4.6-30.3,23.9s13.5,39.9,30.3,46S523,383.34,523,364,509.37,324.14,492.68,318Z"/><path class="cls-78" d="M492.68,318.34c-16.6-6-30,4.6-30,23.7s13.4,39.5,30,45.6,30-4.6,30-23.7S509.27,324.34,492.68,318.34Z"/><path class="cls-79" d="M492.68,318.64c-16.41-6-29.8,4.6-29.8,23.5s13.3,39.2,29.8,45.2,29.8-4.6,29.8-23.5S509.08,324.64,492.68,318.64Z"/><path class="cls-80" d="M492.68,318.94c-16.31-5.9-29.5,4.5-29.5,23.3s13.19,38.9,29.5,44.8,29.5-4.5,29.5-23.3S509,324.84,492.68,318.94Z"/><path class="cls-81" d="M492.68,319.24c-16.2-5.9-29.3,4.5-29.3,23.1s13.1,38.6,29.3,44.4,29.3-4.5,29.3-23.1S508.77,325,492.68,319.24Z"/><path class="cls-82" d="M492.68,319.44c-16-5.8-29,4.4-29,22.9s13,38.2,29,44.1,29-4.4,29-22.9S508.68,325.34,492.68,319.44Z"/><path class="cls-83" d="M492.68,319.74c-15.91-5.8-28.8,4.4-28.8,22.7s12.89,37.9,28.8,43.7,28.8-4.4,28.8-22.7S508.58,325.54,492.68,319.74Z"/><path class="cls-84" d="M492.68,320c-15.7-5.7-28.5,4.4-28.5,22.5s12.8,37.6,28.5,43.3,28.5-4.4,28.5-22.5S508.37,325.84,492.68,320Z"/><path class="cls-85" d="M492.68,320.34c-15.6-5.7-28.3,4.3-28.3,22.3s12.7,37.2,28.3,42.9,28.3-4.3,28.3-22.3S508.27,326,492.68,320.34Z"/><path class="cls-86" d="M492.68,320.64c-15.5-5.6-28,4.3-28,22.1s12.5,36.9,28,42.5,28-4.3,28-22.1S508.18,326.24,492.68,320.64Z"/><path class="cls-87" d="M492.68,320.94c-15.31-5.6-27.8,4.2-27.8,21.9s12.39,36.6,27.8,42.2,27.8-4.2,27.8-21.9S508,326.54,492.68,320.94Z"/><path class="cls-88" d="M492.68,321.24c-15.2-5.5-27.5,4.2-27.5,21.8s12.3,36.2,27.5,41.8,27.5-4.2,27.5-21.8S507.87,326.74,492.68,321.24Z"/><path class="cls-89" d="M492.68,321.54c-15.1-5.5-27.3,4.2-27.3,21.6s12.2,35.9,27.3,41.4,27.3-4.2,27.3-21.6S507.68,327,492.68,321.54Z"/><path class="cls-90" d="M492.68,321.84c-14.91-5.4-27,4.1-27,21.4s12.09,35.6,27,41,27-4.1,27-21.4S507.58,327.24,492.68,321.84Z"/><path class="cls-91" d="M492.68,322.14c-14.81-5.4-26.8,4.1-26.8,21.2s12,35.3,26.8,40.6,26.8-4.1,26.8-21.2S507.47,327.44,492.68,322.14Z"/><path class="cls-92" d="M492.68,322.34c-14.6-5.3-26.5,4.1-26.5,21s11.9,34.9,26.5,40.2,26.5-4.1,26.5-21S507.27,327.74,492.68,322.34Z"/><path class="cls-93" d="M492.68,322.64c-14.5-5.3-26.3,4-26.3,20.8s11.8,34.6,26.3,39.9,26.3-4,26.3-20.8S507.18,327.94,492.68,322.64Z"/><path class="cls-94" d="M492.68,322.94c-14.41-5.2-26,4-26,20.6s11.59,34.3,26,39.5,26-4,26-20.6S507.08,328.14,492.68,322.94Z"/><path class="cls-95" d="M492.68,323.24c-14.2-5.2-25.8,3.9-25.8,20.4s11.5,33.9,25.8,39.1,25.8-3.9,25.8-20.4S506.87,328.44,492.68,323.24Z"/><path class="cls-96" d="M492.68,323.54c-14.1-5.1-25.5,3.9-25.5,20.2s11.4,33.6,25.5,38.7,25.5-3.9,25.5-20.2S506.77,328.64,492.68,323.54Z"/><path class="cls-97" d="M492.68,323.84c-13.91-5.1-25.2,3.9-25.2,20s11.29,33.3,25.2,38.3,25.19-3.9,25.19-20S506.58,328.94,492.68,323.84Z"/><path class="cls-98" d="M492.68,324.14c-13.81-5-25,3.8-25,19.8s11.19,32.9,25,38,25-3.8,25-19.8S506.47,329.14,492.68,324.14Z"/><path class="cls-99" d="M492.68,324.44c-13.7-5-24.7,3.8-24.7,19.6s11.1,32.6,24.7,37.6,24.69-3.8,24.69-19.6S506.37,329.34,492.68,324.44Z"/><path class="cls-100" d="M492.68,324.74c-13.5-4.9-24.5,3.7-24.5,19.4s11,32.3,24.5,37.2,24.5-3.7,24.5-19.4S506.18,329.64,492.68,324.74Z"/><path class="cls-101" d="M492.68,324.94c-13.41-4.9-24.2,3.7-24.2,19.2s10.89,32,24.2,36.8,24.19-3.7,24.19-19.2S506.08,329.84,492.68,324.94Z"/><path class="cls-102" d="M492.68,325.24c-13.31-4.8-24,3.7-24,19s10.69,31.6,24,36.4,24-3.7,24-19S505.87,330.14,492.68,325.24Z"/><path class="cls-103" d="M492.68,325.54c-13.1-4.8-23.7,3.6-23.7,18.8s10.6,31.3,23.7,36.1,23.69-3.6,23.69-18.8S505.77,330.34,492.68,325.54Z"/><path class="cls-104" d="M492.68,325.84c-13-4.7-23.5,3.6-23.5,18.6s10.5,31,23.5,35.7,23.5-3.6,23.5-18.6S505.68,330.54,492.68,325.84Z"/><path class="cls-105" d="M492.68,326.14c-12.81-4.7-23.2,3.6-23.2,18.4s10.39,30.6,23.2,35.3,23.19-3.6,23.19-18.4S505.47,330.84,492.68,326.14Z"/><path class="cls-16" d="M486.27,329.34c-13-4.7-23.5,3.6-23.5,18.6s10.5,31,23.5,35.7,23.5-3.6,23.5-18.6S499.27,334,486.27,329.34Z"/><path class="cls-9" d="M486.27,340.54c-4.09-1.5-7.4,1.3-7.4,6.3s3.31,10.9,7.4,12.4,7.41-2,7.41-7S490.37,342,486.27,340.54Z"/><path class="cls-9" d="M486.27,362.34c-8.09-3-14.7-2.4-14.7,1.3s6.61,11.3,14.7,14.3,14.7.1,14.7-3.6S494.37,365.34,486.27,362.34Z"/><polygon class="cls-15" points="536.58 354.64 698.77 413.74 698.77 403.64 536.58 344.54 536.58 354.64"/><polygon class="cls-15" points="536.58 376.34 698.77 435.34 698.77 425.24 536.58 366.24 536.58 376.34"/><polygon class="cls-15" points="536.58 397.94 604.98 422.84 604.98 412.74 536.58 387.84 536.58 397.94"/><path class="cls-16" d="M623.68,420.14a2.52,2.52,0,0,0-3.5,1.9,6.32,6.32,0,0,0-3.5-4.5c-2-.7-3.6.6-3.6,3.1a5.66,5.66,0,0,0,.3,1.8c.6,1.8,6.8,9.9,6.8,9.9s6.2-3.5,6.8-4.8a4.31,4.31,0,0,0,.3-1.7A6.16,6.16,0,0,0,623.68,420.14Z"/><path class="cls-16" d="M643.18,428.14a2.52,2.52,0,0,0-3.5,1.9,6.32,6.32,0,0,0-3.5-4.5c-2-.7-3.6.6-3.6,3.1a5.66,5.66,0,0,0,.3,1.8c.6,1.8,6.8,9.9,6.8,9.9s6.2-3.5,6.8-4.8a4.31,4.31,0,0,0,.3-1.7C646.77,431.44,645.18,428.84,643.18,428.14Z"/><path class="cls-16" d="M662.68,436.14a2.52,2.52,0,0,0-3.5,1.9,6.32,6.32,0,0,0-3.5-4.5c-2-.7-3.6.6-3.6,3.1a5.66,5.66,0,0,0,.3,1.8c.6,1.8,6.8,9.9,6.8,9.9s6.2-3.5,6.8-4.8a4.31,4.31,0,0,0,.3-1.7C666.27,439.44,664.68,436.84,662.68,436.14Z"/></g></g></svg>