<svg xmlns="http://www.w3.org/2000/svg" xmlns:xlink="http://www.w3.org/1999/xlink" viewBox="0 0 362 307.22"><defs><style>.cls-1{isolation:isolate;}.cls-2,.cls-3,.cls-4,.cls-5{mix-blend-mode:multiply;}.cls-2{fill:url(#radial-gradient);}.cls-3{fill:url(#radial-gradient-2);}.cls-4{fill:url(#radial-gradient-3);}.cls-5{fill:url(#radial-gradient-4);}.cls-6{fill:url(#linear-gradient);}.cls-7{fill:url(#linear-gradient-2);}.cls-8{fill:url(#linear-gradient-3);}.cls-9{fill:url(#radial-gradient-5);}.cls-10,.cls-16,.cls-21,.cls-26,.cls-28,.cls-34,.cls-39,.cls-44,.cls-45,.cls-46,.cls-47,.cls-48,.cls-49,.cls-50,.cls-51{mix-blend-mode:screen;}.cls-10{fill:url(#radial-gradient-6);}.cls-11{fill:#fff;}.cls-12{fill:url(#linear-gradient-4);}.cls-13{fill:url(#linear-gradient-5);}.cls-14{fill:url(#linear-gradient-6);}.cls-15{fill:url(#radial-gradient-7);}.cls-16{fill:url(#radial-gradient-8);}.cls-17{fill:url(#linear-gradient-7);}.cls-18{fill:url(#linear-gradient-8);}.cls-19{fill:url(#linear-gradient-9);}.cls-20{fill:url(#radial-gradient-9);}.cls-21{fill:url(#radial-gradient-10);}.cls-22{fill:url(#linear-gradient-10);}.cls-23{fill:url(#linear-gradient-11);}.cls-24{fill:url(#linear-gradient-12);}.cls-25{fill:url(#radial-gradient-11);}.cls-26{fill:url(#radial-gradient-12);}.cls-27{fill:url(#radial-gradient-13);}.cls-28,.cls-45{opacity:0.5;}.cls-28{fill:url(#radial-gradient-14);}.cls-29{fill:url(#radial-gradient-15);}.cls-30{fill:url(#linear-gradient-13);}.cls-31{fill:url(#linear-gradient-14);}.cls-32{fill:url(#linear-gradient-15);}.cls-33{fill:url(#radial-gradient-16);}.cls-34{fill:url(#radial-gradient-17);}.cls-35{fill:url(#linear-gradient-16);}.cls-36{fill:url(#linear-gradient-17);}.cls-37{fill:url(#linear-gradient-18);}.cls-38{fill:url(#radial-gradient-18);}.cls-39{fill:url(#radial-gradient-19);}.cls-40{fill:url(#linear-gradient-19);}.cls-41{fill:url(#linear-gradient-20);}.cls-42{fill:url(#linear-gradient-21);}.cls-43{fill:url(#radial-gradient-20);}.cls-44{fill:url(#radial-gradient-21);}.cls-45{fill:url(#radial-gradient-22);}.cls-46,.cls-47,.cls-48,.cls-49,.cls-50,.cls-51{opacity:0.7;}.cls-46{fill:url(#radial-gradient-23);}.cls-47{fill:url(#radial-gradient-24);}.cls-48{fill:url(#radial-gradient-25);}.cls-49{fill:url(#radial-gradient-26);}.cls-50{fill:url(#radial-gradient-27);}.cls-51{fill:url(#radial-gradient-28);}</style><radialGradient id="radial-gradient" cx="194.17" cy="-297.51" r="49.75" gradientTransform="translate(44.21 270.39) scale(0.73 0.29)" gradientUnits="userSpaceOnUse"><stop offset="0" stop-color="#4150cd"/><stop offset="1" stop-color="#fff"/></radialGradient><radialGradient id="radial-gradient-2" cx="325.13" cy="-113.96" r="49.76" xlink:href="#radial-gradient"/><radialGradient id="radial-gradient-3" cx="193.96" cy="77.88" r="49.75" xlink:href="#radial-gradient"/><radialGradient id="radial-gradient-4" cx="62.64" cy="-111.86" r="49.75" xlink:href="#radial-gradient"/><linearGradient id="linear-gradient" x1="212.7" y1="135.78" x2="166.9" y2="213.9" gradientUnits="userSpaceOnUse"><stop offset="0" stop-color="#d4dbff"/><stop offset="1" stop-color="#987bcc"/></linearGradient><linearGradient id="linear-gradient-2" x1="169.28" y1="138.13" x2="169.28" y2="239.59" gradientUnits="userSpaceOnUse"><stop offset="0" stop-color="#adb8ff"/><stop offset="1" stop-color="#662ba1"/></linearGradient><linearGradient id="linear-gradient-3" x1="202.41" y1="117.72" x2="152.13" y2="148.25" gradientUnits="userSpaceOnUse"><stop offset="0" stop-color="#e7ebff"/><stop offset="1" stop-color="#aca2db"/></linearGradient><radialGradient id="radial-gradient-5" cx="185.12" cy="151.95" r="17.66" gradientUnits="userSpaceOnUse"><stop offset="0" stop-color="#89f9ff"/><stop offset="1" stop-color="#d7d7f5"/></radialGradient><radialGradient id="radial-gradient-6" cx="185.1" cy="145.63" r="17.96" gradientUnits="userSpaceOnUse"><stop offset="0" stop-color="#89f9ff"/><stop offset="1"/></radialGradient><linearGradient id="linear-gradient-4" x1="117.26" y1="190.56" x2="71.46" y2="268.67" xlink:href="#linear-gradient"/><linearGradient id="linear-gradient-5" x1="73.83" y1="192.9" x2="73.83" y2="294.36" xlink:href="#linear-gradient-2"/><linearGradient id="linear-gradient-6" x1="106.97" y1="172.5" x2="56.69" y2="203.03" xlink:href="#linear-gradient-3"/><radialGradient id="radial-gradient-7" cx="89.68" cy="206.72" r="17.66" xlink:href="#radial-gradient-5"/><radialGradient id="radial-gradient-8" cx="89.66" cy="200.4" r="17.96" xlink:href="#radial-gradient-6"/><linearGradient id="linear-gradient-7" x1="212.75" y1="25.97" x2="166.96" y2="104.09" xlink:href="#linear-gradient"/><linearGradient id="linear-gradient-8" x1="169.33" y1="28.31" x2="169.33" y2="129.78" xlink:href="#linear-gradient-2"/><linearGradient id="linear-gradient-9" x1="202.46" y1="7.91" x2="152.18" y2="38.44" xlink:href="#linear-gradient-3"/><radialGradient id="radial-gradient-9" cx="185.17" cy="42.13" r="17.66" xlink:href="#radial-gradient-5"/><radialGradient id="radial-gradient-10" cx="185.15" cy="35.81" r="17.96" xlink:href="#radial-gradient-6"/><linearGradient id="linear-gradient-10" x1="123.42" y1="91.5" x2="65.11" y2="122.67" gradientUnits="userSpaceOnUse"><stop offset="0" stop-color="#89f9ff"/><stop offset="1" stop-color="#4e60eb"/></linearGradient><linearGradient id="linear-gradient-11" x1="93.52" y1="80.21" x2="57.12" y2="119.02" gradientUnits="userSpaceOnUse"><stop offset="0" stop-color="#77e7ed"/><stop offset="1" stop-color="#3c4ed9"/></linearGradient><linearGradient id="linear-gradient-12" x1="117.7" y1="50.19" x2="62.01" y2="96.84" gradientUnits="userSpaceOnUse"><stop offset="0" stop-color="#9effff"/><stop offset="1" stop-color="#6375ff"/></linearGradient><radialGradient id="radial-gradient-11" cx="89.99" cy="97.11" r="17.66" xlink:href="#radial-gradient-5"/><radialGradient id="radial-gradient-12" cx="89.96" cy="90.8" r="13.69" xlink:href="#radial-gradient-6"/><radialGradient id="radial-gradient-13" cx="357.46" cy="44.38" r="15.55" gradientUnits="userSpaceOnUse"><stop offset="0" stop-color="#56dab0"/><stop offset="1" stop-color="#2d8276"/></radialGradient><radialGradient id="radial-gradient-14" cx="-129.51" cy="690.45" r="4.4" gradientTransform="matrix(3.48, -2.01, 0.63, 1.09, 342.99, -949.2)" gradientUnits="userSpaceOnUse"><stop offset="0" stop-color="#89f9ff"/><stop offset="0.14" stop-color="#6dc6ca"/><stop offset="0.31" stop-color="#4c8a8e"/><stop offset="0.48" stop-color="#31595b"/><stop offset="0.64" stop-color="#1c3234"/><stop offset="0.78" stop-color="#0c1717"/><stop offset="0.91" stop-color="#030606"/><stop offset="1"/></radialGradient><radialGradient id="radial-gradient-15" cx="9.18" cy="137.39" r="12" xlink:href="#radial-gradient-13"/><linearGradient id="linear-gradient-13" x1="307.72" y1="190.44" x2="261.93" y2="268.56" xlink:href="#linear-gradient"/><linearGradient id="linear-gradient-14" x1="264.3" y1="192.79" x2="264.3" y2="294.25" xlink:href="#linear-gradient-2"/><linearGradient id="linear-gradient-15" x1="297.44" y1="172.38" x2="247.15" y2="202.91" xlink:href="#linear-gradient-3"/><radialGradient id="radial-gradient-16" cx="280.15" cy="206.61" r="17.66" xlink:href="#radial-gradient-5"/><radialGradient id="radial-gradient-17" cx="280.12" cy="200.29" r="17.96" xlink:href="#radial-gradient-6"/><linearGradient id="linear-gradient-16" x1="307.72" y1="81.05" x2="261.93" y2="159.17" xlink:href="#linear-gradient"/><linearGradient id="linear-gradient-17" x1="264.3" y1="83.39" x2="264.3" y2="184.86" xlink:href="#linear-gradient-2"/><linearGradient id="linear-gradient-18" x1="297.44" y1="62.99" x2="247.15" y2="93.52" xlink:href="#linear-gradient-3"/><radialGradient id="radial-gradient-18" cx="280.15" cy="97.21" r="17.66" xlink:href="#radial-gradient-5"/><radialGradient id="radial-gradient-19" cx="280.12" cy="90.89" r="17.96" xlink:href="#radial-gradient-6"/><linearGradient id="linear-gradient-19" x1="212.54" y1="245.72" x2="166.75" y2="323.84" xlink:href="#linear-gradient"/><linearGradient id="linear-gradient-20" x1="169.12" y1="248.07" x2="169.12" y2="349.53" xlink:href="#linear-gradient-2"/><linearGradient id="linear-gradient-21" x1="202.25" y1="227.67" x2="151.97" y2="258.2" xlink:href="#linear-gradient-3"/><radialGradient id="radial-gradient-20" cx="184.97" cy="261.89" r="17.66" xlink:href="#radial-gradient-5"/><radialGradient id="radial-gradient-21" cx="184.94" cy="255.57" r="17.96" xlink:href="#radial-gradient-6"/><radialGradient id="radial-gradient-22" cx="-195.92" cy="614.96" r="4.4" xlink:href="#radial-gradient-14"/><radialGradient id="radial-gradient-23" cx="-169.4" cy="765.25" r="4.4" xlink:href="#radial-gradient-14"/><radialGradient id="radial-gradient-24" cx="-168.89" cy="614.11" r="4.4" xlink:href="#radial-gradient-14"/><radialGradient id="radial-gradient-25" cx="-231.7" cy="441.87" r="4.4" gradientTransform="translate(837.41 1084.08) rotate(90) scale(4.02 1.26)" xlink:href="#radial-gradient-14"/><radialGradient id="radial-gradient-26" cx="-246.68" cy="517.59" r="4.4" gradientTransform="translate(837.41 1084.08) rotate(90) scale(4.02 1.26)" xlink:href="#radial-gradient-14"/><radialGradient id="radial-gradient-27" cx="-149.19" cy="803.29" r="4.4" gradientTransform="matrix(-3.48, -2.01, -0.63, 1.09, 123.21, -949.2)" xlink:href="#radial-gradient-14"/><radialGradient id="radial-gradient-28" cx="-184.33" cy="689.48" r="4.4" xlink:href="#radial-gradient-14"/></defs><g class="cls-1"><g id="Layer_2" data-name="Layer 2"><g id="Shadow"><path class="cls-2" d="M149,184.52c0,7.94,16.16,14.36,36.1,14.36s36.1-6.42,36.1-14.36S205,170.17,185.1,170.17,149,176.6,149,184.52Z"/><path class="cls-3" d="M244,237.5c0,7.93,16.16,14.36,36.09,14.36s36.1-6.43,36.1-14.36-16.17-14.36-36.1-14.36S244,229.58,244,237.5Z"/><path class="cls-4" d="M148.85,292.87c0,7.93,16.16,14.35,36.09,14.35S221,300.8,221,292.87s-16.16-14.36-36.1-14.36S148.85,284.93,148.85,292.87Z"/><path class="cls-5" d="M53.56,238.11c0,7.93,16.16,14.35,36.1,14.35s36.09-6.42,36.09-14.35-16.16-14.36-36.09-14.36S53.56,230.17,53.56,238.11Z"/></g><g id="Blocks"><g class="cls-1"><polygon class="cls-6" points="216.9 128.21 216.79 164.8 185.15 183.19 185.25 146.59 216.9 128.21"/><polygon class="cls-7" points="185.25 146.59 185.15 183.19 153.3 164.8 153.4 128.21 185.25 146.59"/><polygon class="cls-8" points="216.9 128.21 185.25 146.59 153.4 128.21 185.05 109.81 216.9 128.21"/></g><polygon class="cls-9" points="185.25 146.08 166.23 135.61 184.8 146.85 185.19 168.28 185.19 168.28 185.7 146.85 204.01 135.69 185.25 146.08"/><path class="cls-10" d="M167.14,145.63a18,18,0,1,0,18-18A18,18,0,0,0,167.14,145.63Z"/><path class="cls-11" d="M184.94,131.48a.5.5,0,0,1-.5-.5V53.12a.51.51,0,0,1,.5-.5.5.5,0,0,1,.5.5V131A.5.5,0,0,1,184.94,131.48Z"/><path class="cls-11" d="M101.84,194.6a.5.5,0,0,1-.25-.93L169,154.74a.5.5,0,0,1,.5.87l-67.44,38.93A.51.51,0,0,1,101.84,194.6Z"/><g class="cls-1"><polygon class="cls-12" points="121.46 182.98 121.35 219.57 89.71 237.96 89.81 201.37 121.46 182.98"/><polygon class="cls-13" points="89.81 201.37 89.71 237.96 57.86 219.57 57.96 182.98 89.81 201.37"/><polygon class="cls-14" points="121.46 182.98 89.81 201.37 57.96 182.98 89.61 164.59 121.46 182.98"/></g><polygon class="cls-15" points="89.81 200.85 70.79 190.39 89.36 201.63 89.75 223.05 89.75 223.05 90.26 201.63 108.57 190.47 89.81 200.85"/><path class="cls-16" d="M71.7,200.4a18,18,0,1,0,18-18A18,18,0,0,0,71.7,200.4Z"/><path class="cls-11" d="M175.57,251.49a.45.45,0,0,1-.25-.07l-67.43-38.93a.5.5,0,1,1,.5-.86l67.43,38.92a.51.51,0,0,1,.18.69A.5.5,0,0,1,175.57,251.49Z"/><g class="cls-1"><polygon class="cls-17" points="216.95 18.39 216.85 54.99 185.2 73.38 185.31 36.78 216.95 18.39"/><polygon class="cls-18" points="185.31 36.78 185.2 73.38 153.35 54.99 153.45 18.39 185.31 36.78"/><polygon class="cls-19" points="216.95 18.39 185.31 36.78 153.45 18.39 185.1 0 216.95 18.39"/></g><polygon class="cls-20" points="185.3 36.26 166.28 25.8 184.85 37.04 185.24 58.46 185.24 58.46 185.75 37.04 204.06 25.88 185.3 36.26"/><path class="cls-21" d="M167.19,35.81a18,18,0,1,0,18-18A18,18,0,0,0,167.19,35.81Z"/><path class="cls-11" d="M100.37,85.7a.5.5,0,0,1-.25-.93l67.43-38.93a.5.5,0,0,1,.5.86L100.62,85.63A.45.45,0,0,1,100.37,85.7Z"/><g class="cls-1"><polygon class="cls-22" points="121.76 73.38 121.66 109.98 90.01 128.37 90.12 91.77 121.76 73.38"/><polygon class="cls-23" points="90.12 91.77 90.01 128.37 58.16 109.98 58.27 73.38 90.12 91.77"/><polygon class="cls-24" points="121.76 73.38 90.12 91.77 58.27 73.38 89.91 54.98 121.76 73.38"/></g><polygon class="cls-25" points="90.12 91.25 71.09 80.78 89.67 92.02 90.06 113.45 90.06 113.45 90.56 92.02 108.88 80.86 90.12 91.25"/><path class="cls-26" d="M72,90.8a18,18,0,1,0,18-18A18,18,0,0,0,72,90.8Z"/><path class="cls-11" d="M6.71,141a.5.5,0,0,1-.43-.25.51.51,0,0,1,.18-.69l67.43-38.92a.5.5,0,1,1,.5.86L7,140.94A.45.45,0,0,1,6.71,141Z"/><circle class="cls-27" cx="355.78" cy="48.88" r="6.22"/><path class="cls-11" d="M285.69,89.88a.5.5,0,0,1-.44-.25.51.51,0,0,1,.18-.69L352.87,50a.5.5,0,1,1,.5.86L285.93,89.81A.42.42,0,0,1,285.69,89.88Z"/><path class="cls-28" d="M311.91,74.22c1.51,2.61,9.61.87,18-4s14-11,12.48-13.63-9.61-.86-18,4S310.4,71.63,311.91,74.22Z"/><path class="cls-29" d="M0,139.75a6.23,6.23,0,1,0,6.22-6.22A6.23,6.23,0,0,0,0,139.75Z"/><g class="cls-1"><polygon class="cls-30" points="311.92 182.86 311.82 219.46 280.18 237.85 280.28 201.25 311.92 182.86"/><polygon class="cls-31" points="280.28 201.25 280.18 237.85 248.32 219.46 248.43 182.87 280.28 201.25"/><polygon class="cls-32" points="311.92 182.86 280.28 201.25 248.43 182.87 280.07 164.48 311.92 182.86"/></g><polygon class="cls-33" points="280.28 200.74 261.26 190.27 279.83 201.51 280.22 222.94 280.22 222.94 280.73 201.51 299.04 190.35 280.28 200.74"/><path class="cls-34" d="M262.17,200.29a18,18,0,1,0,17.95-18A18,18,0,0,0,262.17,200.29Z"/><path class="cls-11" d="M280.12,185.93a.5.5,0,0,1-.5-.5V107.57a.51.51,0,0,1,.5-.5.5.5,0,0,1,.5.5v77.86A.5.5,0,0,1,280.12,185.93Z"/><g class="cls-1"><polygon class="cls-35" points="311.92 73.47 311.82 110.07 280.18 128.46 280.28 91.86 311.92 73.47"/><polygon class="cls-36" points="280.28 91.86 280.18 128.46 248.32 110.07 248.43 73.47 280.28 91.86"/><polygon class="cls-37" points="311.92 73.47 280.28 91.86 248.43 73.47 280.07 55.08 311.92 73.47"/></g><polygon class="cls-38" points="280.28 91.34 261.26 80.88 279.83 92.12 280.22 113.54 280.22 113.54 280.73 92.12 299.04 80.96 280.28 91.34"/><path class="cls-39" d="M262.17,90.89a18,18,0,1,0,17.95-18A18,18,0,0,0,262.17,90.89Z"/><path class="cls-11" d="M197.15,250a.5.5,0,0,1-.25-.93l67.44-38.93a.5.5,0,0,1,.5.86L197.4,249.9A.45.45,0,0,1,197.15,250Z"/><g class="cls-1"><polygon class="cls-40" points="216.74 238.15 216.64 274.74 184.99 293.13 185.1 256.54 216.74 238.15"/><polygon class="cls-41" points="185.1 256.54 184.99 293.13 153.14 274.74 153.25 238.15 185.1 256.54"/><polygon class="cls-42" points="216.74 238.15 185.1 256.54 153.25 238.15 184.89 219.76 216.74 238.15"/></g><polygon class="cls-43" points="185.1 256.02 166.07 245.55 184.65 256.79 185.04 278.22 185.04 278.22 185.54 256.79 203.85 245.63 185.1 256.02"/><path class="cls-44" d="M167,255.57a18,18,0,1,0,18-18A18,18,0,0,0,167,255.57Z"/></g><g id="Glow"><path class="cls-45" d="M32.93,125.36c1.51,2.6,9.61.87,18-4s14-11,12.48-13.63-9.6-.86-18,4S31.43,122.76,32.93,125.36Z"/><path class="cls-46" d="M220.1,236.16c1.51,2.61,9.61.86,18-4s14-11,12.48-13.63-9.6-.87-18,4S218.6,233.55,220.1,236.16Z"/><path class="cls-47" d="M126.59,70.05c1.51,2.6,9.62.87,18-4s14-11,12.49-13.63-9.62-.87-18,4S125.09,67.45,126.59,70.05Z"/><path class="cls-48" d="M280.13,134.32c-3,0-5.56,7.9-5.57,17.63s2.55,17.61,5.56,17.61,5.55-7.88,5.56-17.6S283.13,134.32,280.13,134.32Z"/><path class="cls-49" d="M184.64,74.05c-3,0-5.57,7.89-5.58,17.62s2.55,17.63,5.56,17.63,5.56-7.9,5.57-17.62S187.63,74.05,184.64,74.05Z"/><path class="cls-50" d="M151.72,237.05c-1.51,2.62-9.61.88-18-4s-14-11-12.48-13.63,9.61-.86,18,4S153.22,234.46,151.72,237.05Z"/><path class="cls-51" d="M120.3,183.44c1.51,2.61,9.61.86,18-4s14-11,12.48-13.62-9.61-.87-18,4S118.8,180.84,120.3,183.44Z"/></g></g></g></svg>